<svg id="Layer_1" data-name="Layer 1" xmlns="http://www.w3.org/2000/svg" viewBox="0 0 200 91.67"><defs><style>.cls-1{fill:#fff;}</style></defs><title>Artboard 1</title><path class="cls-1" d="M117.83,35.88c0-5.07-.24-5.62-3.12-5.62-.67.06-1.1.06-1.22.06s-.92,0-.92-.67.92-1.1,2.2-1.22c3.85-.43,12.83-.55,12.89-.55,3.05,0,15.7,0,15.7,9.16,0,6.35-6,7.64-8.31,8.06v.12c2.63.12,6,.31,8.55,3.54a9.73,9.73,0,0,1,2,6c0,2.14-1,11.36-13.14,11.36-.67,0-9.35-.24-11.12-.24,0,0-6.35.24-7.51.24-.49,0-1.28,0-1.28-.92s.92-.92,2.2-1c3.05-.24,3.05-1.83,3.05-4.4Zm10.75,8.49c7,0,7.82-5.13,7.82-7.39,0-4.95-2.93-7.51-8.25-7.51-3.79,0-3.79,1.41-3.79,3v9.9c0,1,0,2,1.89,2ZM124.36,57c0,5.13.73,7.58,5.19,7.58A11.41,11.41,0,0,0,134,63.8c3.48-1.77,4.46-5.5,4.46-8.19,0-9.47-8.13-9.59-10-9.59-4.09,0-4.15.31-4.15,2.44Z"/><path class="cls-1" d="M174.4,59.89c0,2.5,0,4.15,3.05,4.34,1.28.06,2.14.12,2.14,1s-.79.92-1.28.92c-2,0-5.19-.24-7.21-.24-1,0-6,.24-7.15.24-.49,0-1.28,0-1.28-.92s.86-.92,2.14-1c3.05-.18,3.05-1.83,3.05-4.22V31.6c0-1.59-.49-1.59-1.71-1.59-3.67,0-7.7,0-10.81,5.8-.55,1-.86,1.22-1.4,1.22a.81.81,0,0,1-.79-.79,5.51,5.51,0,0,1,.18-1l2.5-8.61c.18-.73.37-1.1.92-1.1s.67.31.73.86c.31,1.65,1.41,1.71,2.75,1.71h19.61c6.29,0,6.6-.79,7-1.89.18-.49.37-.86.86-.86.86,0,.86,1,.86,2.44l-.43,7.45c-.06,1.22-.18,2-1,2-.31,0-.73-.06-1-1.34-1-5.86-4-5.86-8-5.86-3.48,0-3.79,0-3.79,2Z"/><path class="cls-1" d="M104,46.42c0-10.59-9.23-19-20.65-19h0l-6.43,0-.36.3H54.17l-.39.26H27.39v.56H53.78l.39.29H76.49l.36.26h7.51c8.47,1.17,12.28,10.68,12.28,17.54,0,8.92-4.46,18.46-13,18.46H76.79l-.36.3h-22l-.39.26H26.72v.56H54.08l.39.29h22l.36.26h6.37C93.53,66.78,104,58.34,104,46.42Z"/><path class="cls-1" d="M69.5,44H62l-.36.38H38.92l-.39.33H11.84v.72H38.53l.39.37H61.68l.36.34h7.4c0-.13,0-.26,0-.39C69.44,45.15,69.46,44.57,69.5,44Z"/><path class="cls-1" d="M74.94,31.72H68.3l-.36.3H45.62l-.39.26H18.47v.56H45.23l.39.29H67.94l.36.26h5A12.45,12.45,0,0,1,74.94,31.72Z"/><path class="cls-1" d="M65.05,35.94l-.36.3H42l-.39.26H14.68v.56H41.62l.39.29H64.69l.36.26h5.84a17.46,17.46,0,0,1,.75-1.67Z"/><path class="cls-1" d="M62.88,40.09l-.36.3H39.84l-.39.26H12.51v.56H39.45l.39.29H62.52l.36.26h6.88q.14-.85.34-1.67Z"/><path class="cls-1" d="M62.22,48.46l-.36.3H39.18l-.39.26H11.43v.56H38.79l.39.29H61.86l.36.26h7.6c-.1-.55-.17-1.11-.23-1.67Z"/><path class="cls-1" d="M62.94,52.62l-.36.3H39.9l-.39.26h-27v.56h27l.39.29H62.58l.36.26h8q-.29-.82-.53-1.67Z"/><path class="cls-1" d="M65.23,56.77l-.36.3H42.19l-.39.26h-27v.56h27l.39.29H64.87l.36.26h7.65c-.33-.54-.64-1.1-.93-1.68Z"/><path class="cls-1" d="M74.83,61H69.26l-.36.3h-23l-.39.26h-27v.56h27l.39.29h23l.36.26h7.37A14.57,14.57,0,0,1,74.83,61Z"/></svg>